<svg xmlns="http://www.w3.org/2000/svg" viewBox="0 0 320 120" role="img" aria-label="NASA logo">
  <circle cx="80" cy="60" r="50" fill="#0b3d91"/>
  <path d="M34 86V34h11l21 34V34h11v52h-11L45 53v33z" fill="#fff"/>
  <path d="m84 86 13-52h10l13 52h-10l-2.6-12H96.6L94 86zm12.6-22h13.8L103.5 44z" fill="#fff"/>
  <path d="M142 88c-13 0-23-8-23-19 0-9 6-15 16-18l10-3c4-1 5-3 5-5 0-4-4-6-9-6-6 0-11 3-12 7l-10-6c4-9 14-15 25-15 13 0 23 8 23 19 0 9-6 15-16 18l-10 3c-4 1-6 3-6 6 0 4 4 7 10 7 6 0 11-3 13-7l10 6c-4 9-14 14-26 14z" fill="#fff"/>
  <path d="m178 86 13-52h10l13 52h-10l-2.6-12h-15.4L184 86zm12.6-22h13.8L197.5 44z" fill="#fff"/>
  <path d="M36 39c22 11 74 22 120 18 28-2 54-11 71-17" stroke="#c92629" stroke-width="5" fill="none" stroke-linecap="round"/>
  <path d="M207 33c28 22 47 54 53 79" stroke="#c92629" stroke-width="5" fill="none" stroke-linecap="round"/>
  <text x="240" y="70" font-family="'Segoe UI',sans-serif" font-size="26" font-weight="600" fill="#0b3d91">NASA</text>
</svg>
