<svg xmlns="http://www.w3.org/2000/svg" viewBox="0 0 320 120" role="img" aria-label="OpenAI logo">
  <g fill="none" stroke-width="6" stroke-linecap="round" transform="translate(28 10)">
    <path d="M78 34c0-12.15-9.85-22-22-22s-22 9.85-22 22c0 8.12 4.5 15.08 11.2 18.54L56 58" stroke="#15c39a"/>
    <path d="M58 24c0-12.15-9.85-22-22-22S14 11.85 14 24c0 8.12 4.5 15.08 11.2 18.54L36 48" stroke="#10a37f" transform="rotate(60 58 60)"/>
    <path d="M78 34c0-12.15-9.85-22-22-22s-22 9.85-22 22c0 8.12 4.5 15.08 11.2 18.54L56 58" stroke="#15c39a" transform="rotate(120 60 60)"/>
    <path d="M78 34c0-12.15-9.85-22-22-22s-22 9.85-22 22c0 8.12 4.5 15.08 11.2 18.54L56 58" stroke="#15c39a" transform="rotate(180 60 60)"/>
    <path d="M78 34c0-12.15-9.85-22-22-22s-22 9.85-22 22c0 8.12 4.5 15.08 11.2 18.54L56 58" stroke="#10a37f" transform="rotate(240 60 60)"/>
    <path d="M78 34c0-12.15-9.85-22-22-22s-22 9.85-22 22c0 8.12 4.5 15.08 11.2 18.54L56 58" stroke="#15c39a" transform="rotate(300 60 60)"/>
    <circle cx="60" cy="60" r="10" fill="#0b1f17" stroke="#10a37f"/>
  </g>
  <g fill="#e7f2ed" font-family="'Space Grotesk','Segoe UI',sans-serif" font-weight="600" font-size="32">
    <text x="145" y="53">Open</text>
    <text x="145" y="88">AI</text>
  </g>
</svg>
